<svg width="27" height="26" viewBox="0 0 27 26" fill="none" xmlns="http://www.w3.org/2000/svg">
<ellipse cx="13.5" cy="13" rx="13.5" ry="13" fill="#EFEFEF"/>
<g clip-path="url(#clip0_1763_567)">
<path d="M20.8189 5H7.18111C6.86786 5 6.56744 5.12444 6.34594 5.34594C6.12444 5.56744 6 5.86786 6 6.18111V19.8189C6 20.1321 6.12444 20.4326 6.34594 20.6541C6.56744 20.8756 6.86786 21 7.18111 21H20.8189C21.1321 21 21.4326 20.8756 21.6541 20.6541C21.8756 20.4326 22 20.1321 22 19.8189V6.18111C22 5.86786 21.8756 5.56744 21.6541 5.34594C21.4326 5.12444 21.1321 5 20.8189 5ZM10.7689 18.63H8.36333V10.9889H10.7689V18.63ZM9.56445 9.93C9.29158 9.92846 9.02528 9.84613 8.79916 9.69339C8.57304 9.54065 8.39723 9.32435 8.29392 9.07179C8.19061 8.81923 8.16443 8.54173 8.21869 8.2743C8.27294 8.00688 8.4052 7.76152 8.59877 7.56919C8.79234 7.37686 9.03854 7.24618 9.30631 7.19364C9.57408 7.1411 9.85141 7.16906 10.1033 7.27399C10.3552 7.37892 10.5704 7.55611 10.7216 7.78321C10.8729 8.01031 10.9535 8.27713 10.9533 8.55C10.9559 8.73269 10.9217 8.91403 10.8527 9.0832C10.7837 9.25238 10.6813 9.40593 10.5517 9.53471C10.4221 9.66349 10.2679 9.76486 10.0983 9.83277C9.92867 9.90068 9.74711 9.93375 9.56445 9.93ZM19.6356 18.6367H17.2311V14.4622C17.2311 13.2311 16.7078 12.8511 16.0322 12.8511C15.3189 12.8511 14.6189 13.3889 14.6189 14.4933V18.6367H12.2133V10.9944H14.5267V12.0533H14.5578C14.79 11.5833 15.6033 10.78 16.8444 10.78C18.1867 10.78 19.6367 11.5767 19.6367 13.91L19.6356 18.6367Z" fill="#6D24BA"/>
</g>
<defs>
<clipPath id="clip0_1763_567">
<rect width="16" height="16" fill="white" transform="translate(6 5)"/>
</clipPath>
</defs>
</svg>
