<?xml version="1.0" encoding="UTF-8"?>
<svg id="Layer_1" xmlns="http://www.w3.org/2000/svg" xmlns:xlink="http://www.w3.org/1999/xlink" version="1.1" viewBox="0 0 128 128">
  <!-- Generator: Adobe Illustrator 29.4.0, SVG Export Plug-In . SVG Version: 2.1.0 Build 152)  -->
  <defs>
    <style>
      .st0 {
        fill: none;
      }

      .st1 {
        fill: #170e71;
      }

      .st2 {
        fill: url(#linear-gradient1);
      }

      .st3 {
        fill: url(#linear-gradient);
      }

      .st4 {
        fill: #fff;
      }

      .st5 {
        fill: #241385;
      }
    </style>
    <linearGradient id="linear-gradient" x1="98" y1="51.5" x2="11.3" y2="80.9" gradientUnits="userSpaceOnUse">
      <stop offset=".2" stop-color="#7535e0"/>
      <stop offset="1" stop-color="#29158d"/>
    </linearGradient>
    <linearGradient id="linear-gradient1" x1="85.8" y1="31" x2="95.6" y2="72.9" xlink:href="#linear-gradient"/>
  </defs>
  <path class="st3" d="M107.8,42c-1.3.1-2.5,1.8-2.8,3-.9,4.4,3.8,8.8,7.6,10-.8,3-1.4,5.7-3.3,8.2-4.3,5.6-10.3,6.4-16.9,6.1-6.6-.3-19.9-4.3-23.3,3.6-1.9,4.2,1.4,8.9,3,12.7,3.4,8,4.5,16.2,2,24.7.5-.5.9-1.4,1.2-2.1,1.6-3.5,3.3-8.2,3.5-12.1.3-5.8-1.5-16.1,1.7-20.9,2.4-3.6,8.5-1.9,12.3-1.7,11.7.4,20.1-3.7,23.3-15.4.3-1.1.4-2.5.8-3.5.3-1.1,1.1-2.3,1.5-3.4.7-2,1.9-5.3.5-7.2-1.4-1.9-7.1-3-9.5-3.9-4.5-1.5-13.8-5-16.3-9.1-1-1.6-1.4-3.8-2.3-5.6-6.3-12.7-21.3-15.2-34.2-14.5-14.3.8-25.8,9.6-34,20.6-4.9,6.6-10.7,18.1-9.3,26.5.9,5.5,5.1,9.8,9.5,12.8-3.8,9.6-8.9,18.9-15.9,26.5,14.3,0,28.4,2.3,41.6,7.6,4.5,1.8,9,4,13.2,6.6,2.9,1.7,5.6,3.7,8.2,5.8,0-.3,0-.5-.1-.7-.7-2-3-5.2-4-7.3-8.9-17.6-11.7-37.9,4.2-52.5,6.2-5.7,14.5-10.2,17-18.8.5-1.9.7-3.8.9-5.7,1.9,1.5,4.1,3.1,6.8,4.5,4.9,2.8,9.6,4.3,13.3,5.2M80.2,31c-.8-.1-1.3-1.4-.5-1.7,1.4-.4,1.8,1.9.5,1.7Z"/>
  <path class="st2" d="M118.8,43.8c-1.4-1.9-7.1-3-9.5-3.9-3.9-1.3-11.3-4.1-14.9-7.4-.9.8-1.9,1.5-2.9,2-.1,0-.2.1-.3.2,1,.7,2.2,1.4,3.3,2.1,4.9,2.8,9.6,4.3,13.3,5.2-1.3.1-2.5,1.8-2.8,3-.9,4.4,3.8,8.8,7.6,10-.8,3-1.4,5.7-3.3,8.2-4.3,5.6-10.3,6.4-16.9,6.1-6.6-.3-19.9-4.3-23.3,3.6-1.9,4.2,1.4,8.9,3,12.7,3.4,8,4.5,16.2,2,24.7.5-.5.9-1.4,1.2-2.1,1.6-3.5,3.3-8.2,3.5-12.1.3-5.8-1.5-16.1,1.7-20.9,2.4-3.6,8.5-1.9,12.3-1.7,11.7.4,20.1-3.7,23.3-15.4.3-1.1.4-2.5.8-3.5.3-1.1,1.1-2.3,1.5-3.4.7-2,1.9-5.3.5-7.2Z"/>
  <path class="st1" d="M68,33.8c.2-.2.4-.6.7-1,0,0,1.3-1.7,2.9-3.1,1.9-1.6,5.7-4.8,8.7-3.6,1.3.6,2,1.8,2.4,2.7.2.4,1.8,4,0,6.6-.2.3-.8,1.1-2,1.5-1.7.6-3.4-.3-3.9-.5-1.1-.6-1.7-1.4-1.9-1.6-1.2-1.6-1.1-3.4-1-4-.9.1-2.2.4-3.5,1.2-1.1.6-1.9,1.2-2.5,1.7Z"/>
  <path class="st5" d="M61.6,111.5c-4.2-2.5-8.7-4.7-13.2-6.6-13.2-5.4-27.3-7.7-41.6-7.6,7-7.7,12.1-16.9,15.9-26.5,3.4,2.4,6.5,3.9,8.7,4.9,2.8,1.2,4.2,1.7,6.2,1.8.8,0,5,0,8.2-3.2.7-.7,2.4-2.5,3.2-7.3.6-3.4.4-6.2-1.3-15.6-1.2-6.2-1.9-9.3-2.1-14.4-.1-2.4,0-5.2,1.2-8.3,1-2.2,2.2-3.8,3.2-4.9-.4,2.1-.8,5.2-.5,9,.2,3.4.9,5.7,2,9.8,2.3,8.3,3.4,12.5,3.5,13.4.6,3.8,1.5,11.3-2.3,18.3-.8,1.4-2,3.6-4.5,5.6-4.6,3.6-10,3.5-11.9,3.4,0,0,19.2,9.1,25,28.1v.2Z"/>
  <ellipse class="st4" cx="80.2" cy="30.1" rx=".9" ry="1" transform="translate(-.4 59) rotate(-40.3)"/>
  <path class="st0" d="M107.8,42s4.1-.9,6.8-.4,5.8,2.8,5.8,2.8l.7,5-1.3,9.5-4.1,10.4-15.2,5.2-13.4,1.1-1.8,10.3.9,13.9-5.4,13.8h-6.8c0,0-6-7.6-6-7.6l-3.3-24.2,1.5-17.1,16.6-7s6.6-5.8,7.3-6,12.9-7.7,12.9-7.7l3.9-2h.9"/>
</svg>