<?xml version="1.0" standalone="no"?>
<!DOCTYPE svg PUBLIC "-//W3C//DTD SVG 20010904//EN"
 "http://www.w3.org/TR/2001/REC-SVG-20010904/DTD/svg10.dtd">
<svg version="1.0" xmlns="http://www.w3.org/2000/svg"
 width="38.000000pt" height="59.000000pt" viewBox="0 0 38.000000 59.000000"
 preserveAspectRatio="xMidYMid meet">

<g transform="translate(0.000000,59.000000) scale(0.100000,-0.100000)"
fill="#000000" stroke="none">
<path d="M113 571 c-42 -26 -83 -88 -83 -127 0 -34 26 -64 54 -64 14 0 17 -5
12 -22 -4 -13 -10 -48 -13 -78 -4 -39 -13 -61 -30 -77 -24 -23 -31 -75 -14
-101 5 -9 0 -22 -15 -37 -13 -13 -24 -31 -24 -40 0 -13 24 -15 175 -15 l175 0
0 23 c0 13 -5 28 -11 34 -8 8 -5 20 12 43 31 41 33 118 5 149 -28 30 -36 26
-36 -19 0 -43 -5 -47 -32 -26 -12 9 -18 27 -18 57 0 24 -4 59 -9 77 -8 28 -7
32 9 32 24 0 50 37 50 69 0 33 -45 96 -85 121 -41 25 -81 25 -122 1z m107 -16
c10 -12 10 -15 -3 -15 -8 0 -20 -7 -27 -15 -12 -14 -15 -14 -30 0 -9 8 -22 15
-28 15 -16 0 -15 17 1 23 26 11 75 6 87 -8z m-70 -50 c0 -20 -20 -29 -33 -15
-9 10 -8 12 6 7 9 -4 17 -2 17 3 0 6 -8 10 -17 10 -15 0 -16 2 -3 9 17 11 30
5 30 -14z m87 9 c8 -21 -13 -42 -28 -27 -13 13 -5 43 11 43 6 0 13 -7 17 -16z
m-133 -106 c-10 -15 -43 -8 -54 11 -14 27 -13 31 12 71 l22 35 12 -54 c7 -30
10 -59 8 -63z m194 32 c-2 -25 -8 -36 -22 -38 -31 -6 -37 11 -22 61 7 25 13
47 12 49 0 2 7 -6 17 -17 11 -13 16 -33 15 -55z m-77 25 c5 4 9 -7 9 -24 0
-33 -13 -46 -36 -37 -12 5 -12 9 -2 26 11 17 11 22 -1 29 -8 5 -20 7 -28 4
-16 -6 -17 -29 -2 -39 16 -10 -6 -28 -25 -21 -23 9 -20 54 3 62 11 3 22 13 25
22 6 14 9 13 27 -6 11 -12 24 -19 30 -16z m-46 -98 c6 0 20 3 32 7 l23 7 -21
-48 c-33 -78 -32 -78 -77 36 -4 11 -1 13 14 7 10 -5 24 -9 29 -9z m-45 -39 c0
-5 -6 -8 -14 -8 -9 0 -12 7 -9 21 4 16 8 17 14 7 5 -7 9 -16 9 -20z m120 7 c0
-8 -7 -15 -15 -15 -9 0 -12 6 -9 15 4 8 10 15 15 15 5 0 9 -7 9 -15z m-135
-45 c-3 -4 8 -20 25 -33 28 -24 30 -30 30 -96 l0 -71 -35 0 -35 0 0 111 c0 72
4 108 10 104 6 -4 8 -10 5 -15z m45 -24 c0 -5 -7 -3 -15 4 -8 7 -12 17 -9 22
7 10 24 -9 24 -26z m52 12 c-7 -7 -12 -8 -12 -2 0 6 3 14 7 17 3 4 9 5 12 2 2
-3 -1 -11 -7 -17z m48 -83 l0 -105 -38 0 -38 0 4 73 c3 59 8 77 28 98 13 14
21 28 17 32 -3 4 1 7 10 7 15 0 17 -14 17 -105z m99 -7 c1 -31 -18 -78 -31
-78 -5 0 -6 10 -4 23 3 12 8 45 12 72 5 39 8 46 15 30 4 -11 8 -32 8 -47z
m-279 -50 c-1 -58 -2 -61 -15 -44 -18 24 -20 77 -3 94 7 7 13 12 15 12 2 0 3
-28 3 -62z m218 50 c18 -18 14 -63 -8 -89 l-19 -24 -1 63 c0 62 6 72 28 50z
m-220 -143 c3 -17 1 -17 -7 -5 -9 12 -11 12 -11 1 0 -11 -3 -11 -15 -1 -12 10
-15 10 -15 0 0 -8 -3 -10 -6 -7 -11 10 18 38 35 35 9 -2 17 -12 19 -23z m86 9
c4 -9 3 -20 0 -23 -4 -3 -9 0 -12 8 -4 11 -6 11 -13 0 -8 -12 -11 -11 -19 1
-8 13 -10 12 -11 -5 0 -11 -3 -14 -6 -7 -9 22 6 42 31 42 13 0 27 -7 30 -16z
m84 4 c17 -17 15 -33 -3 -18 -12 10 -15 10 -15 -1 0 -11 -2 -11 -10 1 -9 13
-11 13 -20 0 -8 -13 -10 -13 -10 1 0 30 35 40 58 17z m66 6 c9 -3 16 -10 16
-16 0 -5 -4 -6 -10 -3 -5 3 -10 0 -11 -7 0 -10 -2 -10 -6 1 -4 11 -7 11 -14 0
-4 -7 -11 -10 -15 -6 -4 3 -1 13 6 22 14 17 13 17 34 9z"/>
<path d="M210 500 c0 -5 5 -10 10 -10 6 0 10 5 10 10 0 6 -4 10 -10 10 -5 0
-10 -4 -10 -10z"/>
<path d="M210 210 c0 -5 5 -10 11 -10 5 0 7 5 4 10 -3 6 -8 10 -11 10 -2 0 -4
-4 -4 -10z"/>
<path d="M210 169 c0 -5 5 -7 10 -4 6 3 10 8 10 11 0 2 -4 4 -10 4 -5 0 -10
-5 -10 -11z"/>
<path d="M210 140 c0 -5 5 -10 11 -10 5 0 7 5 4 10 -3 6 -8 10 -11 10 -2 0 -4
-4 -4 -10z"/>
</g>
</svg>
